PathFileType  4	(X/Y/Z) W:\OA_GaitRetraining\ACL OpenCap study\PS1\Edited\
DataRate	CameraRate	NumFrames	NumMarkers	Units	OrigDataRate	OrigDataStartFrame	OrigNumFrames
  200.0		  200.0		    9		     46		 mm	  200.0	      56	    147
Frame#	Time	C7			R_Shoulder			L_Shoulder			Sternum			R_humerus			R_elbow_med			R_elbow_lat			R_forearm			R_wrist_radius			R_wrist_ulna			L_humerus			L_elbow_med			L_elbow_lat			L_forearm			L_wrist_radius			L_wrist_ulna			r.ASIS			r.PSIS			L.ASIS			L.PSIS			r_thigh1			r_thigh2			r_thigh3			r_thigh4			r_thigh5			r_knee			r_shank_antsup			r_sh2			r_sh3			r_sh4			r_ankle			r_calc			r_5meta			r_toe			L_thigh1			L_thigh2			L_thigh3			L_thigh4			L_knee			L_shank_antsup			L_sh2			L_sh3			L_ankle			L_calc			L_5meta			L_toe			
		X1	Y1	Z1	X2	Y2	Z2	X3	Y3	Z3	X4	Y4	Z4	X5	Y5	Z5	X6	Y6	Z6	X7	Y7	Z7	X8	Y8	Z8	X9	Y9	Z9	X10	Y10	Z10	X11	Y11	Z11	X12	Y12	Z12	X13	Y13	Z13	X14	Y14	Z14	X15	Y15	Z15	X16	Y16	Z16	X17	Y17	Z17	X18	Y18	Z18	X19	Y19	Z19	X20	Y20	Z20	X21	Y21	Z21	X22	Y22	Z22	X23	Y23	Z23	X24	Y24	Z24	X25	Y25	Z25	X26	Y26	Z26	X27	Y27	Z27	X28	Y28	Z28	X29	Y29	Z29	X30	Y30	Z30	X31	Y31	Z31	X32	Y32	Z32	X33	Y33	Z33	X34	Y34	Z34	X35	Y35	Z35	X36	Y36	Z36	X37	Y37	Z37	X38	Y38	Z38	X39	Y39	Z39	X40	Y40	Z40	X41	Y41	Z41	X42	Y42	Z42	X43	Y43	Z43	X44	Y44	Z44	X45	Y45	Z45	X46	Y46	Z46	

56	0.27500	-88.341	1205.968	-448.107	37.907	1137.979	-536.047	-237.823	1131.528	-525.330	-89.276	1087.774	-560.576	210.932	1053.150	-389.733	192.214	989.372	-264.393	257.104	998.370	-312.950	218.142	877.703	-402.630	198.165	798.414	-413.477	174.436	831.059	-446.844	-342.736	1074.647	-396.912	-328.907	1032.569	-230.327	-391.099	1025.595	-252.570	-410.216	936.962	-268.107	-381.479	789.272	-255.551	-419.644	801.824	-214.814	85.603	740.475	-387.851	-36.715	800.534	-226.831	-162.240	768.027	-451.182	-99.176	802.491	-238.980	103.047	638.815	-457.912	92.495	556.708	-548.133	126.208	511.863	-537.002	139.367	559.198	-387.106	125.163	483.312	-474.421	95.999	373.571	-595.328	74.897	276.575	-570.067	30.954	201.901	-486.378	88.455	326.215	-511.982	48.933	257.202	-424.418	-6.351	141.636	-333.667	-67.715	161.568	-265.778	11.114	47.980	-379.873	-42.008	55.885	-441.484	-203.049	680.746	-526.856	-200.514	587.220	-627.486	-266.221	613.028	-451.013	-255.495	519.387	-555.964	-244.224	449.808	-687.986	-264.763	326.248	-799.892	-309.583	304.045	-723.151	-308.347	188.843	-768.212	-326.162	111.248	-855.737	-318.372	47.830	-798.729	-326.423	94.962	-970.190	-252.193	111.790	-976.746
57	0.28000	-88.159	1202.880	-463.295	38.009	1134.286	-549.970	-237.094	1127.431	-540.162	-88.476	1084.073	-575.216	212.367	1053.952	-404.460	193.983	991.464	-277.234	258.133	1000.198	-327.328	217.272	879.932	-416.498	197.967	798.928	-424.946	173.978	831.746	-458.055	-342.253	1070.220	-412.385	-328.909	1026.377	-246.280	-391.324	1021.016	-268.579	-411.755	932.399	-285.989	-383.772	783.995	-277.573	-421.836	795.808	-236.472	86.386	737.521	-401.149	-35.793	798.643	-240.966	-160.032	764.902	-466.398	-98.245	800.867	-253.912	104.048	636.093	-469.306	93.239	554.192	-560.861	128.127	509.144	-548.614	142.536	558.053	-400.064	127.213	480.768	-485.822	98.627	369.546	-606.252	76.972	272.783	-578.784	32.259	201.353	-494.075	91.044	324.261	-521.922	50.781	258.015	-432.598	-5.563	145.295	-338.710	-66.978	168.061	-271.907	11.195	49.482	-381.333	-41.442	56.343	-443.727	-198.972	676.884	-542.855	-196.583	582.174	-642.226	-265.083	611.433	-466.836	-254.167	516.322	-570.680	-241.554	445.538	-701.457	-262.593	319.993	-811.956	-308.994	298.955	-735.814	-309.006	183.792	-780.141	-326.117	107.111	-867.631	-321.644	47.990	-806.148	-327.181	82.005	-979.345	-253.697	101.994	-986.471
58	0.28500	-87.406	1199.862	-477.550	38.512	1130.987	-564.492	-236.246	1123.212	-554.788	-87.507	1080.371	-589.784	213.465	1054.371	-418.779	195.096	993.256	-289.518	258.646	1001.638	-341.252	217.605	880.579	-428.217	198.552	798.964	-435.752	173.782	831.725	-468.666	-341.855	1065.026	-428.028	-329.107	1019.116	-262.250	-391.804	1015.345	-284.855	-413.331	926.984	-303.800	-386.063	778.134	-300.216	-423.568	788.712	-259.293	87.167	734.329	-414.576	-34.982	796.520	-255.154	-157.911	761.550	-481.448	-97.641	799.128	-268.823	105.346	633.161	-481.018	95.199	550.790	-572.056	130.271	506.231	-560.050	143.772	555.419	-411.605	129.205	477.866	-497.207	101.537	365.383	-617.376	78.845	269.820	-587.486	33.267	199.555	-500.455	93.923	322.166	-531.604	52.596	258.379	-441.036	-4.844	149.124	-343.978	-66.358	174.648	-278.437	11.148	51.067	-382.986	-40.449	57.088	-446.120	-195.037	673.321	-559.173	-191.696	577.025	-656.995	-263.724	610.543	-484.149	-252.296	513.132	-586.134	-238.523	440.167	-715.326	-261.599	313.451	-823.865	-308.103	293.597	-747.238	-309.562	178.768	-790.999	-328.042	101.367	-876.667	-326.201	47.497	-812.731	-329.582	65.783	-987.372	-255.955	88.013	-993.833
59	0.29000	-86.907	1196.559	-491.673	39.333	1127.856	-578.779	-235.271	1119.057	-569.373	-86.400	1076.819	-604.303	214.441	1054.466	-432.329	195.715	994.447	-301.820	258.672	1002.644	-354.529	217.981	880.641	-439.196	199.142	798.364	-446.204	174.072	831.134	-478.993	-341.488	1059.154	-443.735	-329.656	1010.920	-278.452	-392.795	1009.499	-301.671	-415.017	920.512	-322.131	-388.309	771.615	-323.579	-427.202	781.651	-282.570	88.093	730.929	-427.893	-34.357	794.300	-269.504	-155.767	758.007	-496.399	-97.341	797.346	-283.665	106.885	629.950	-492.962	97.453	547.223	-583.839	132.530	502.795	-571.385	145.038	552.548	-423.072	130.732	474.504	-508.310	104.532	361.043	-628.576	81.232	266.379	-596.080	34.263	198.640	-507.689	96.454	320.127	-541.993	54.388	259.494	-449.581	-4.230	152.867	-349.643	-65.845	181.388	-285.595	10.595	52.704	-384.905	-40.025	57.596	-449.100	-190.585	669.959	-574.998	-186.245	572.027	-671.579	-261.924	609.039	-501.731	-250.209	510.164	-601.411	-234.854	434.614	-729.033	-260.766	306.412	-834.305	-307.311	288.525	-757.627	-311.338	173.358	-799.675	-333.086	94.423	-884.758	-331.411	48.218	-817.905	-332.633	49.891	-994.818	-258.470	72.339	-1000.338
60	0.29500	-86.403	1193.006	-506.245	40.584	1124.957	-592.882	-234.291	1114.644	-583.585	-85.137	1073.344	-618.699	215.297	1054.171	-445.436	195.863	995.039	-314.084	258.321	1003.262	-367.169	218.690	880.221	-449.760	200.124	797.460	-455.962	174.679	829.687	-488.901	-340.884	1052.669	-459.473	-330.516	1001.864	-294.752	-393.937	1001.653	-318.550	-416.674	913.121	-341.189	-390.416	764.533	-347.550	-428.716	773.551	-307.005	88.607	727.248	-441.967	-33.940	791.889	-283.746	-153.507	754.233	-510.975	-97.362	795.554	-298.127	108.690	626.533	-505.091	99.895	543.020	-595.134	134.866	498.874	-582.705	146.332	549.347	-434.568	133.305	471.156	-519.649	107.921	356.634	-639.793	83.113	263.279	-605.274	37.810	199.705	-514.406	99.098	318.117	-552.216	56.198	260.341	-458.377	-3.650	156.822	-355.615	-65.401	188.146	-293.252	10.132	54.792	-387.456	-39.374	58.377	-452.197	-186.048	666.528	-590.777	-179.628	567.277	-685.577	-260.196	607.300	-518.892	-247.259	507.098	-617.524	-231.649	428.891	-742.736	-259.607	300.173	-844.518	-306.611	284.449	-767.308	-313.166	167.946	-806.919	-338.562	88.250	-892.137	-334.596	49.824	-823.386	-338.292	37.812	-999.955	-264.552	61.656	-1009.776
61	0.30000	-85.745	1189.220	-520.872	42.059	1122.306	-606.852	-233.311	1110.688	-598.170	-83.759	1069.968	-633.093	216.282	1053.637	-457.502	195.192	995.416	-325.869	257.720	1003.494	-379.182	219.465	879.217	-459.693	201.345	795.936	-465.345	175.791	827.913	-498.364	-340.511	1045.636	-475.459	-331.695	992.026	-311.396	-395.266	992.877	-335.877	-418.385	904.831	-361.211	-392.501	756.889	-372.150	-430.863	764.796	-331.509	89.383	725.132	-457.079	-34.083	789.061	-297.404	-150.939	750.274	-524.811	-98.348	793.131	-311.640	110.775	622.782	-517.240	102.543	538.758	-607.239	137.372	494.627	-593.984	147.687	545.867	-446.134	134.961	467.116	-530.860	111.417	352.087	-651.118	85.254	260.200	-614.234	39.201	199.352	-521.843	102.185	316.277	-561.878	57.901	261.043	-467.332	-3.133	160.952	-362.014	-65.043	194.837	-301.057	9.447	56.694	-389.998	-38.151	59.566	-455.429	-181.146	663.363	-605.946	-173.155	563.557	-700.068	-258.080	605.435	-535.998	-243.943	504.601	-633.571	-229.120	423.647	-756.226	-259.047	297.418	-855.593	-304.995	282.607	-777.063	-314.118	165.800	-815.821	-343.199	86.067	-898.409	-336.689	51.977	-827.958	-345.333	32.076	-1002.546	-275.161	65.819	-1019.966
62	0.30500	-85.017	1185.667	-535.544	44.148	1120.374	-621.637	-232.231	1106.525	-612.367	-82.275	1066.643	-647.363	216.724	1052.794	-469.026	193.977	995.262	-337.627	257.017	1003.336	-390.539	220.493	877.640	-469.031	202.718	793.829	-474.119	177.118	825.115	-507.473	-340.155	1038.143	-491.632	-333.208	981.456	-328.408	-397.195	983.991	-353.717	-419.780	896.060	-381.733	-394.437	748.691	-397.396	-433.082	755.432	-356.463	90.568	721.279	-470.107	-33.608	787.164	-310.977	-147.988	746.344	-537.346	-99.333	791.576	-324.366	113.118	618.755	-529.739	105.513	534.110	-619.148	139.857	489.861	-605.240	149.309	542.268	-457.764	135.644	461.317	-540.412	114.829	347.538	-662.492	87.534	257.669	-622.708	40.488	199.187	-529.508	104.378	313.457	-572.018	59.658	261.846	-476.417	-2.541	164.640	-368.986	-64.516	200.454	-309.370	9.092	59.172	-394.098	-38.395	60.514	-460.207	-176.916	660.531	-620.368	-166.697	560.837	-714.694	-255.501	602.764	-552.181	-239.583	502.110	-649.999	-227.975	421.759	-770.591	-259.409	299.222	-866.397	-302.595	284.699	-786.414	-315.360	169.415	-825.184	-346.175	87.032	-902.351	-339.401	53.269	-830.577	-349.009	27.220	-1003.962	-285.122	67.243	-1025.594
63	0.31000	-84.303	1181.266	-549.852	46.308	1118.128	-635.571	-231.085	1102.272	-626.398	-80.652	1063.484	-661.339	217.002	1051.560	-480.125	192.297	994.702	-349.376	256.248	1002.845	-401.217	221.608	875.528	-477.896	204.437	791.322	-482.291	179.041	822.058	-516.116	-339.826	1030.351	-507.919	-334.922	970.207	-345.739	-398.858	973.772	-371.962	-421.039	886.578	-403.052	-396.378	739.946	-422.217	-435.581	746.284	-383.557	92.048	717.155	-482.704	-33.497	785.009	-323.529	-144.771	742.737	-549.331	-100.868	789.849	-336.283	115.824	614.558	-542.515	108.418	529.366	-631.653	142.454	484.785	-616.619	151.202	538.482	-469.637	138.639	458.462	-553.109	117.865	343.104	-673.918	89.431	255.321	-631.563	41.596	199.133	-537.324	107.520	311.873	-582.075	61.313	262.723	-485.617	-2.025	167.830	-376.405	-63.508	204.611	-317.315	8.749	60.993	-400.034	-38.294	61.700	-465.442	-173.157	659.294	-632.487	-161.998	561.296	-727.716	-251.885	600.887	-564.889	-235.343	502.074	-664.772	-222.659	425.968	-786.921	-258.452	302.449	-876.157	-300.742	291.977	-794.955	-316.698	175.500	-831.478	-346.960	87.803	-903.566	-341.613	53.922	-831.442	-347.905	25.553	-1003.853	-282.436	62.179	-1025.070
64	0.31500	-83.356	1177.783	-564.103	48.635	1116.237	-648.630	-229.779	1097.961	-640.333	-78.921	1060.359	-675.093	217.295	1050.137	-490.703	190.260	993.823	-361.227	255.430	1001.771	-411.722	222.882	872.769	-486.339	206.138	788.313	-489.982	181.128	818.132	-524.424	-339.485	1022.081	-524.605	-336.838	958.282	-363.435	-400.586	962.687	-390.844	-422.433	876.756	-425.734	-397.906	731.035	-448.811	-437.527	736.519	-411.021	93.704	713.150	-494.603	-33.557	782.606	-335.908	-141.699	739.532	-560.931	-102.858	787.742	-347.799	118.417	610.305	-555.426	111.952	524.151	-643.663	145.036	479.530	-628.149	152.951	534.530	-481.584	140.570	453.769	-564.452	120.471	338.845	-685.304	91.226	253.810	-640.420	42.476	199.336	-545.414	110.261	310.417	-591.932	62.913	263.094	-495.134	-1.333	169.758	-384.642	-61.825	206.897	-325.217	7.958	61.725	-408.201	-39.193	63.366	-473.227	-169.829	661.296	-642.726	-156.169	566.444	-739.534	-248.555	601.800	-574.387	-232.220	506.735	-679.567	-214.659	433.090	-802.283	-255.231	305.884	-887.258	-297.827	300.110	-806.499	-314.983	183.229	-836.513	-345.299	88.887	-901.908	-339.892	55.313	-831.168	-347.210	28.046	-1004.323	-278.808	63.581	-1023.332
